Coordinates
version=1
nRows=21
nColumns=27
inDegrees=yes

Units are S.I. units (second, meters, Newtons, ...)
If the header above contains a line with 'inDegrees', this indicates whether rotational values are in degrees (yes) or radians (no).

endheader
time	pelvis_rotation	pelvis_tilt	pelvis_list	pelvis_tx	pelvis_ty	pelvis_tz	hip_flexion_r	hip_adduction_r	hip_rotation_r	knee_angle_r	knee_rotation_r	knee_adduction_r	knee_angle_r_beta	ankle_angle_r	subtalar_angle_r	mtp_angle_r	hip_flexion_l	hip_adduction_l	hip_rotation_l	knee_angle_l	knee_rotation_l	knee_adduction_l	knee_angle_l_beta	ankle_angle_l	subtalar_angle_l	mtp_angle_l
      3.25500000	      0.22442827	    -25.63586268	      1.73442698	      0.08067097	      0.81785826	     -1.16986407	     49.98731840	    -28.86079229	    -17.48640319	     36.14327638	      0.00000000	      1.14171820	      0.63081918	      0.71628374	      0.00000000	      0.00000000	     49.68501891	    -19.99464071	      0.23377042	     31.62941140	      0.00000000	      7.21886687	      0.55203737	      1.19236207	      0.00000000	      0.00000000
      3.26000000	     -0.05529919	    -25.36281292	      1.78403567	      0.08059860	      0.81753491	     -1.16962218	     50.01269026	    -28.80597358	    -17.13010146	     36.32762156	      0.00000000	      1.28282893	      0.63403661	      0.79784640	      0.00000000	      0.00000000	     49.37467331	    -20.26837260	     -0.74829123	     31.75431556	      0.00000000	      6.38799471	      0.55421736	      1.28926174	      0.00000000	      0.00000000
      3.26500000	     -0.05013599	    -25.59379773	      2.21855558	      0.07929439	      0.81686724	     -1.16995693	     50.90460525	    -29.24527244	    -16.62728400	     36.87107129	      0.00000000	      1.52551258	      0.64352159	      0.77623928	      0.00000000	      0.00000000	     49.63342766	    -19.88671175	     -0.70982360	     31.86636640	      0.00000000	      6.76886450	      0.55617301	      1.20248254	      0.00000000	      0.00000000
      3.27000000	     -0.19028828	    -26.35883969	      2.44075080	      0.07701973	      0.81559806	     -1.16997115	     52.54692107	    -29.33432150	    -15.56718699	     37.60997607	      0.00000000	      1.22066881	      0.65641791	      0.82838277	      0.00000000	      0.00000000	     50.80165933	    -19.90421068	     -1.05859606	     32.46484773	      0.00000000	      6.38921096	      0.56661848	      1.30545165	      0.00000000	      0.00000000
      3.27500000	     -0.09540511	    -25.83916004	      2.43764814	      0.07741733	      0.81556697	     -1.16980746	     51.92812377	    -29.53553736	    -16.20734179	     37.63625232	      0.00000000	      1.82778544	      0.65687652	      0.83314456	      0.00000000	      0.00000000	     50.24984681	    -19.86488921	     -1.02330296	     32.36218753	      0.00000000	      6.40259658	      0.56482673	      1.26284608	      0.00000000	      0.00000000
      3.28000000	     -0.08011025	    -26.00515749	      2.54605186	      0.07638127	      0.81485557	     -1.16973646	     52.44787504	    -29.65564576	    -15.91036439	     37.97960655	      0.00000000	      1.92315640	      0.66286918	      0.89443347	      0.00000000	      0.00000000	     50.65356717	    -19.83784227	     -1.10219320	     32.65292556	      0.00000000	      6.25633139	      0.56990106	      1.24807112	      0.00000000	      0.00000000
      3.28500000	      0.54433274	    -25.93868026	      2.23550831	      0.07619750	      0.81444018	     -1.16957582	     51.89648289	    -29.89102989	    -17.25111612	     38.03653835	      0.00000000	      2.38819276	      0.66386283	      0.90011726	      0.00000000	      0.00000000	     51.20495100	    -19.78925704	     -0.19592328	     32.99380540	      0.00000000	      6.12524399	      0.57585054	      1.29385262	      0.00000000	      0.00000000
      3.29000000	      0.38378874	    -26.00246820	      2.44415084	      0.07524948	      0.81364771	     -1.16950789	     52.51755720	    -30.03291397	    -16.70846201	     38.47772578	      0.00000000	      2.48788877	      0.67156300	      0.94343833	      0.00000000	      0.00000000	     51.35362447	    -19.80189105	     -0.65974612	     33.22775860	      0.00000000	      5.86089881	      0.57993379	      1.33049653	      0.00000000	      0.00000000
      3.29500000	      0.20943738	    -26.01856308	      2.68859530	      0.07438830	      0.81284585	     -1.16948651	     53.11263461	    -30.19625166	    -16.14054886	     38.93086272	      0.00000000	      2.62316860	      0.67947174	      1.02801871	      0.00000000	      0.00000000	     51.41667300	    -19.80241247	     -1.19829742	     33.44119081	      0.00000000	      5.57237104	      0.58365889	      1.37437036	      0.00000000	      0.00000000
      3.30000000	      0.37598072	    -26.91545015	      2.76087430	      0.07191035	      0.81141678	     -1.16953065	     54.61203929	    -30.31700703	    -15.58168788	     39.55982623	      0.00000000	      2.34994714	      0.69044922	      1.09212343	      0.00000000	      0.00000000	     52.97235372	    -19.72790803	     -0.84175325	     34.12872780	      0.00000000	      5.53361391	      0.59565867	      1.44071666	      0.00000000	      0.00000000
      3.30500000	      0.16553963	    -25.98739811	      2.83818225	      0.07299302	      0.81136385	     -1.16934376	     53.72386325	    -30.45387482	    -15.85503663	     39.60960166	      0.00000000	      3.00529667	      0.69131796	      1.09501542	      0.00000000	      0.00000000	     51.76061038	    -19.88572955	     -1.64603993	     33.95997742	      0.00000000	      5.01325020	      0.59271342	      1.47535789	      0.00000000	      0.00000000
      3.31000000	      0.72052604	    -25.97339065	      2.34667821	      0.07271102	      0.81086421	     -1.16904973	     53.14376430	    -30.52318268	    -17.22402392	     39.60563830	      0.00000000	      3.34482727	      0.69124879	      1.07095458	      0.00000000	      0.00000000	     52.44406982	    -19.98787191	     -0.63800278	     34.37738301	      0.00000000	      4.86285740	      0.59999852	      1.58047044	      0.00000000	      0.00000000
      3.31500000	      0.80604491	    -25.98389094	      2.42938039	      0.07200121	      0.81006822	     -1.16915058	     53.41790533	    -30.73790749	    -17.21147560	     39.95421871	      0.00000000	      3.58340358	      0.69733267	      1.16986451	      0.00000000	      0.00000000	     52.70465186	    -19.94425200	     -0.69076720	     34.66800100	      0.00000000	      4.64971726	      0.60507076	      1.64967639	      0.00000000	      0.00000000
      3.32000000	      0.90542758	    -25.93759278	      2.38840468	      0.07147880	      0.80936963	     -1.16914708	     53.48849186	    -30.87463942	    -17.41532521	     40.19961373	      0.00000000	      3.83292855	      0.70161562	      1.17449990	      0.00000000	      0.00000000	     52.94233482	    -19.99281736	     -0.67695770	     34.96049182	      0.00000000	      4.38385522	      0.61017569	      1.73418719	      0.00000000	      0.00000000
      3.32500000	      1.03733865	    -25.88392288	      2.27248069	      0.07100010	      0.80871426	     -1.16911074	     53.45028491	    -30.96518126	    -17.73194847	     40.39200777	      0.00000000	      4.07346539	      0.70497353	      1.21064207	      0.00000000	      0.00000000	     53.21393331	    -20.06956315	     -0.55542625	     35.25801110	      0.00000000	      4.12207212	      0.61536838	      1.81767861	      0.00000000	      0.00000000
      3.33000000	      0.96902931	    -25.86986511	      2.36427836	      0.07033783	      0.80790960	     -1.16920402	     53.79989778	    -31.10031195	    -17.52021722	     40.72392160	      0.00000000	      4.24971324	      0.71076652	      1.21693882	      0.00000000	      0.00000000	     53.35916499	    -20.12917686	     -0.87283279	     35.52918887	      0.00000000	      3.80832364	      0.62010133	      1.91807680	      0.00000000	      0.00000000
      3.33500000	      0.86470736	    -25.83309359	      2.42204852	      0.06970295	      0.80717359	     -1.16927864	     54.08706811	    -31.17587536	    -17.29300846	     41.00311086	      0.00000000	      4.41725627	      0.71563929	      1.24310764	      0.00000000	      0.00000000	     53.46518643	    -20.23560564	     -1.22364864	     35.77828410	      0.00000000	      3.47154458	      0.62444886	      1.99869621	      0.00000000	      0.00000000
      3.34000000	      0.75469361	    -25.79538644	      2.49157243	      0.06909303	      0.80642262	     -1.16936106	     54.39806992	    -31.25305600	    -17.03822037	     41.29845510	      0.00000000	      4.59530118	      0.72079402	      1.26688330	      0.00000000	      0.00000000	     53.56082820	    -20.33845501	     -1.58134150	     36.03560094	      0.00000000	      3.14355782	      0.62893988	      2.09201997	      0.00000000	      0.00000000
      3.34500000	      0.75772543	    -25.79479245	      2.50724226	      0.06846370	      0.80569989	     -1.16947862	     54.62619501	    -31.36947144	    -17.01322161	     41.55904459	      0.00000000	      4.82411780	      0.72534216	      1.25231896	      0.00000000	      0.00000000	     53.76504099	    -20.38392928	     -1.66732005	     36.29383531	      0.00000000	      2.94517268	      0.63344692	      2.18369205	      0.00000000	      0.00000000
      3.35000000	      0.63826055	    -25.71782201	      2.62180535	      0.06795479	      0.80493025	     -1.16962099	     54.91763089	    -31.47301300	    -16.70603662	     41.84699470	      0.00000000	      4.97055460	      0.73036784	      1.30914857	      0.00000000	      0.00000000	     53.79122362	    -20.50638309	     -2.21654286	     36.54459199	      0.00000000	      2.46748310	      0.63782345	      2.28690362	      0.00000000	      0.00000000
      3.35500000	      0.73302000	    -25.68272176	      2.66940811	      0.06745486	      0.80419168	     -1.16983656	     55.06041937	    -31.67655995	    -16.79044101	     42.10208789	      0.00000000	      5.20997279	      0.73482006	      1.32603756	      0.00000000	      0.00000000	     53.98409265	    -20.50694107	     -2.32343207	     36.80685263	      0.00000000	      2.18029702	      0.64240077	      2.38173339	      0.00000000	      0.00000000
